<svg preserveAspectRatio="none" width="100%" height="100%" overflow="visible" style="display: block;" viewBox="0 0 356 52" fill="none" xmlns="http://www.w3.org/2000/svg">
<g id="Frame 102">
<g id="Frame 96">
<rect y="23.5" width="4" height="5" rx="2" fill="var(--fill-0, #F43F3F)"/>
</g>
<g id="Frame 94">
<rect x="8" y="16.5" width="4" height="19" rx="2" fill="var(--fill-0, #F43F3F)"/>
</g>
<g id="Frame 92">
<rect x="16" y="10.5" width="4" height="31" rx="2" fill="var(--fill-0, #F43F3F)"/>
</g>
<g id="Frame 90">
<rect x="24" width="4" height="52" rx="2" fill="var(--fill-0, #F43F3F)"/>
</g>
<g id="Frame 97">
<rect x="32" width="4" height="52" rx="2" fill="var(--fill-0, #F43F3F)"/>
</g>
<g id="Frame 94_2">
<rect x="40" y="12" width="4" height="28" rx="2" fill="var(--fill-0, #F43F3F)"/>
</g>
<g id="Frame 98">
<rect x="48" y="12" width="4" height="28" rx="2" fill="var(--fill-0, #F43F3F)"/>
</g>
<g id="Frame 92_2">
<rect x="56" y="6" width="4" height="40" rx="2" fill="var(--fill-0, #F43F3F)"/>
</g>
<g id="Frame 99">
<rect x="64" y="6" width="4" height="40" rx="2" fill="var(--fill-0, #F43F3F)"/>
</g>
<g id="Frame 96_2">
<rect x="72" y="19" width="4" height="14" rx="2" fill="var(--fill-0, #F43F3F)"/>
</g>
<g id="Frame 100">
<rect x="80" y="19" width="4" height="14" rx="2" fill="var(--fill-0, #F43F3F)"/>
</g>
<g id="Frame 92_3">
<rect x="88" y="6" width="4" height="40" rx="2" fill="var(--fill-0, #F43F3F)"/>
</g>
<g id="Frame 101">
<rect x="96" y="6" width="4" height="40" rx="2" fill="var(--fill-0, #F43F3F)"/>
</g>
<g id="Frame 93">
<rect x="104" y="12" width="4" height="28" rx="2" fill="var(--fill-0, #F43F3F)"/>
</g>
<g id="Frame 102_2">
<rect x="112" y="12" width="4" height="28" rx="2" fill="var(--fill-0, #F43F3F)"/>
</g>
<g id="Frame 94_3">
<rect x="120" y="16.5" width="4" height="19" rx="2" fill="var(--fill-0, #F43F3F)"/>
</g>
<g id="Frame 103">
<rect x="128" y="16.5" width="4" height="19" rx="2" fill="var(--fill-0, #F43F3F)"/>
</g>
<g id="Frame 90_2">
<rect x="136" y="4.5" width="4" height="43" rx="2" fill="var(--fill-0, #F43F3F)"/>
</g>
<g id="Frame 91">
<rect x="144" y="10.5" width="4" height="31" rx="2" fill="var(--fill-0, #F43F3F)"/>
</g>
<g id="Frame 93_2">
<rect x="152" y="16.5" width="4" height="19" rx="2" fill="var(--fill-0, #F43F3F)"/>
</g>
<g id="Frame 95">
<rect x="160" y="23.5" width="4" height="5" rx="2" fill="var(--fill-0, #F43F3F)"/>
</g>
<g id="Frame 96_3">
<rect x="168" y="19" width="4" height="14" rx="2" fill="var(--fill-0, #F43F3F)"/>
</g>
<g id="Frame 91_2">
<rect x="176" y="6" width="4" height="40" rx="2" fill="var(--fill-0, #F43F3F)"/>
</g>
<g id="Frame 93_3">
<rect x="184" y="12" width="4" height="28" rx="2" fill="var(--fill-0, #F43F3F)"/>
</g>
<g id="Frame 95_2">
<rect x="192" y="19" width="4" height="14" rx="2" fill="var(--fill-0, #F43F3F)"/>
</g>
<g id="Frame 94_4">
<rect x="200" y="12" width="4" height="28" rx="2" fill="var(--fill-0, #F43F3F)"/>
</g>
<g id="Frame 90_3">
<rect x="208" width="4" height="52" rx="2" fill="var(--fill-0, #F43F3F)"/>
</g>
<g id="Frame 91_3">
<rect x="216" y="6" width="4" height="40" rx="2" fill="var(--fill-0, #F43F3F)"/>
</g>
<g id="Frame 95_3">
<rect x="224" y="19" width="4" height="14" rx="2" fill="var(--fill-0, #F43F3F)"/>
</g>
<g id="Frame 96_4">
<rect x="232" y="23.5" width="4" height="5" rx="2" fill="var(--fill-0, #F43F3F)"/>
</g>
<g id="Frame 93_4">
<rect x="240" y="16.5" width="4" height="19" rx="2" fill="var(--fill-0, #F43F3F)"/>
</g>
<g id="Frame 92_4">
<rect x="248" y="10.5" width="4" height="31" rx="2" fill="var(--fill-0, #F43F3F)"/>
</g>
<g id="Frame 90_4">
<rect x="256" y="4.5" width="4" height="43" rx="2" fill="var(--fill-0, #F43F3F)"/>
</g>
<g id="Frame 91_4">
<rect x="264" y="10.5" width="4" height="31" rx="2" fill="var(--fill-0, #F43F3F)"/>
</g>
<g id="Frame 104">
<rect x="272" y="10.5" width="4" height="31" rx="2" fill="var(--fill-0, #F43F3F)"/>
</g>
<g id="Frame 95_4">
<rect x="280" y="23.5" width="4" height="5" rx="2" fill="var(--fill-0, #F43F3F)"/>
</g>
<g id="Frame 94_5">
<rect x="288" y="12" width="4" height="28" rx="2" fill="var(--fill-0, #F43F3F)"/>
</g>
<g id="Frame 92_5">
<rect x="296" y="6" width="4" height="40" rx="2" fill="var(--fill-0, #F43F3F)"/>
</g>
<g id="Frame 96_5">
<rect x="304" y="19" width="4" height="14" rx="2" fill="var(--fill-0, #F43F3F)"/>
</g>
<g id="Frame 105">
<rect x="312" y="19" width="4" height="14" rx="2" fill="var(--fill-0, #F43F3F)"/>
</g>
<g id="Frame 90_5">
<rect x="320" width="4" height="52" rx="2" fill="var(--fill-0, #F43F3F)"/>
</g>
<g id="Frame 91_5">
<rect x="328" y="6" width="4" height="40" rx="2" fill="var(--fill-0, #F43F3F)"/>
</g>
<g id="Frame 106">
<rect x="336" y="6" width="4" height="40" rx="2" fill="var(--fill-0, #F43F3F)"/>
</g>
<g id="Frame 95_5">
<rect x="344" y="19" width="4" height="14" rx="2" fill="var(--fill-0, #F43F3F)"/>
</g>
<g id="Frame 93_5">
<rect x="352" y="12" width="4" height="28" rx="2" fill="var(--fill-0, #F43F3F)"/>
</g>
</g>
</svg>
